<svg xmlns="http://www.w3.org/2000/svg" width="25" height="20" fill="none" viewBox="0 0 25 20">
  <path fill="#30333E" d="M21.92 5.13c.93-.7 1.78-1.55 2.48-2.58-.94.42-1.88.7-2.81.8A4.97 4.97 0 0 0 23.74.61c-.98.57-2.01.99-3.14 1.18A5.68 5.68 0 0 0 18.96.67a4.87 4.87 0 0 0-6.84 4.5c0 .38 0 .75.1 1.13-2.02-.1-3.9-.57-5.68-1.5-1.78-.9-3.23-2.11-4.45-3.66-.47.8-.7 1.64-.7 2.49 0 .84.18 1.64.6 2.34.38.75.94 1.31 1.6 1.78-.8 0-1.55-.23-2.2-.66v.1c0 1.17.37 2.2 1.12 3.1.75.93 1.69 1.5 2.81 1.73-.47.09-.89.14-1.31.14-.28 0-.61 0-.9-.05.29.98.85 1.78 1.7 2.44a4.5 4.5 0 0 0 2.9.93 9.85 9.85 0 0 1-6.14 2.11c-.47 0-.84 0-1.17-.04a13.3 13.3 0 0 0 7.55 2.2c2.86 0 5.39-.7 7.64-2.2a13.3 13.3 0 0 0 4.73-5.3 14 14 0 0 0 1.64-6.52c0-.28-.04-.46-.04-.6z"/>
</svg>
