<svg xmlns="http://www.w3.org/2000/svg" width="17" height="14" fill="none" viewBox="0 0 17 14">
  <path fill="#fff" d="M16.6 4.63c-.27.29-.57.55-.9.77-1.48 1.01-2.98 2.03-4.44 3.08-.75.56-1.68 1.23-2.65 1.23H8.6c-.98 0-1.91-.67-2.66-1.23C4.48 7.42 2.98 6.41 1.5 5.4a5 5 0 0 1-.9-.78v7.1c0 .78.64 1.42 1.43 1.42h13.14c.79 0 1.43-.64 1.43-1.43V4.62zm0-2.63c0-.79-.65-1.43-1.43-1.43H2.03C1.07.57.6 1.32.6 2.2c0 .8.9 1.82 1.54 2.25 1.38.96 2.78 1.92 4.17 2.9.58.4 1.56 1.22 2.28 1.22h.01c.73 0 1.71-.82 2.3-1.22l4.17-2.9C15.86 3.9 16.6 3 16.6 2z"/>
</svg>
