<svg xmlns="http://www.w3.org/2000/svg" width="22" height="22" fill="none" viewBox="0 0 22 22">
  <path fill="#fff" d="M19.9.5c.38 0 .75.19 1.03.47.28.28.47.66.47 1.03v18a1.53 1.53 0 0 1-1.5 1.5h-18c-.42 0-.8-.14-1.08-.42A1.48 1.48 0 0 1 .4 20V2A1.53 1.53 0 0 1 1.9.5h18zm-13.17 18h.04V8.47H3.64V18.5h3.1zM5.18 7.1c.47 0 .9-.13 1.27-.5.37-.38.56-.8.56-1.27s-.19-.9-.56-1.27c-.38-.37-.8-.56-1.27-.56-.51 0-.94.19-1.26.56-.38.38-.52.8-.52 1.27s.14.89.52 1.26c.32.38.75.52 1.26.52zM18.4 18.5v-5.48c0-1.55-.23-2.68-.66-3.43-.6-.89-1.64-1.36-3.04-1.36-.75 0-1.36.2-1.92.52-.47.28-.85.66-1.04 1.08h-.04V8.47h-3V18.5h3.1v-4.97c0-.75.08-1.36.32-1.78.28-.52.8-.8 1.55-.8.7 0 1.17.33 1.4.9.14.37.24.98.24 1.78v4.87h3.09z"/>
</svg>
