<svg xmlns="http://www.w3.org/2000/svg" width="83" height="40" fill="none" viewBox="0 0 83 40">
  <path fill="url(#paint0_linear)" d="M39.67 5.14c1.35-3.04-1.68-6.17-4.66-4.82L2.1 15.26c-3.5 1.59-2.39 6.93 1.44 6.93h11.24a3.58 3.58 0 0 1 3.54 3.63v10.55c0 3.9 5.2 5.05 6.77 1.5L39.67 5.14z"/>
  <path fill="#fff" d="M25.47 26.13a5.7 5.7 0 0 1-2.27-.44c-.67-.3-1.2-.72-1.58-1.26a3.18 3.18 0 0 1-.58-1.89h2.2c.05.57.26 1.03.63 1.39.38.36.92.54 1.6.54.71 0 1.26-.17 1.66-.52.4-.36.6-.82.6-1.39 0-.42-.13-.76-.39-1.02a2.37 2.37 0 0 0-.91-.62c-.36-.14-.87-.3-1.52-.46-.81-.22-1.48-.44-2-.65a3 3 0 0 1-1.84-2.92 3.33 3.33 0 0 1 2.06-3.13 5.5 5.5 0 0 1 2.25-.43c1.21 0 2.2.3 2.97.92.78.6 1.21 1.42 1.3 2.48h-2.27c-.04-.5-.25-.9-.65-1.22a2.3 2.3 0 0 0-1.56-.5c-.6 0-1.09.15-1.46.46-.36.3-.54.75-.54 1.35 0 .38.11.7.34.95.24.24.54.44.9.58.36.14.85.3 1.48.47.82.23 1.5.45 2.01.68.53.23.97.58 1.33 1.06.38.47.56 1.1.56 1.9 0 .63-.17 1.23-.52 1.8a3.68 3.68 0 0 1-1.5 1.36c-.64.34-1.41.5-2.3.5zm8.8-8.59a4.34 4.34 0 0 1 3.46-1.62c.86 0 1.64.22 2.35.65a4.4 4.4 0 0 1 1.7 1.78c.4.77.6 1.65.6 2.65s-.2 1.89-.6 2.68c-.42.78-.98 1.39-1.7 1.83-.7.44-1.5.65-2.36.65a4.37 4.37 0 0 1-3.45-1.6v6.16H32.2V16.08h2.06v1.46zM40.3 21c0-.69-.15-1.28-.44-1.77-.27-.5-.64-.88-1.11-1.13a2.9 2.9 0 0 0-2.95 0c-.46.26-.83.65-1.12 1.15-.28.5-.41 1.1-.41 1.78 0 .69.13 1.29.4 1.8a2.96 2.96 0 0 0 4.07 1.15c.48-.27.85-.67 1.12-1.18.3-.52.44-1.12.44-1.8zm3.43 0c0-1 .2-1.88.61-2.65a4.57 4.57 0 0 1 4.07-2.43c.78 0 1.46.16 2.03.47.6.3 1.06.68 1.4 1.13v-1.44h2.08V26h-2.07v-1.48a4.38 4.38 0 0 1-3.47 1.64 4.4 4.4 0 0 1-2.35-.65 4.8 4.8 0 0 1-1.69-1.83c-.4-.8-.61-1.69-.61-2.68zm8.12.03c0-.68-.15-1.28-.44-1.78a2.9 2.9 0 0 0-4.05-1.15 2.9 2.9 0 0 0-1.11 1.13c-.28.5-.42 1.08-.42 1.77 0 .68.14 1.28.42 1.8.29.51.66.9 1.11 1.18a2.96 2.96 0 0 0 2.96 0 2.9 2.9 0 0 0 1.1-1.15c.28-.51.43-1.11.43-1.8zm6.81-3.22c.3-.6.7-1.06 1.2-1.39.5-.33 1.09-.5 1.77-.5v2.12h-.52c-.8 0-1.41.2-1.83.62-.41.4-.62 1.11-.62 2.12V26h-2.05v-9.92h2.05v1.73zm8.78 3.24L72.02 26h-2.78l-3.67-4.27V26h-2.05V12.68h2.05v7.74l3.6-4.34h2.85l-4.58 4.97zm14.13-7.56v1.6h-3.33V26h-2.05V15.1h-3.35v-1.61h8.73z"/>
  <defs>
    <linearGradient id="paint0_linear" x1="20" x2="20" y1="40" gradientUnits="userSpaceOnUse">
      <stop stop-color="#FF5E00"/>
      <stop offset="1" stop-color="#FFA800"/>
    </linearGradient>
  </defs>
</svg>
